<svg width="150" height="19" viewBox="0 0 150 19" fill="none" xmlns="http://www.w3.org/2000/svg">
<g clip-path="url(#clip0_386_158)">
<path d="M1.99419 1.46672H0.664552C0.498347 0.313218 0.58145 0.06604 4.48727 0.06604H9.97203C17.7836 0.06604 21.1078 3.52653 21.1078 9.29402C21.1078 14.8143 17.9499 18.522 10.2214 18.522H0.0828347C-0.00026782 18.1925 -0.00026782 17.7805 0.0828347 17.4509C2.99142 17.2861 3.49003 17.1213 3.49003 15.3087V2.62021C3.49003 1.6315 3.15763 1.46672 1.99419 1.46672ZM17.5344 9.7884C17.5344 4.68003 14.875 1.6315 9.63958 1.6315H6.81414V15.0615C6.81414 16.7093 7.39585 16.9565 9.88892 16.9565C14.5427 17.039 17.5344 15.5559 17.5344 9.7884Z" fill="#1D1D1B"/>
<path d="M34.1551 0.230957C34.2381 0.807705 34.4043 1.30207 34.8199 2.20838L41.0526 16.2976C41.385 16.9567 41.6343 17.2039 43.047 17.2039H43.6288C43.7949 17.9454 43.6288 18.4397 42.964 18.4397H34.2381C34.1551 18.1926 34.1551 17.7806 34.2381 17.3686C37.1467 17.2862 37.4792 17.0391 37.1467 16.3799L35.4847 12.3426H28.5041L27.4238 15.2264C26.8421 16.7919 26.8421 17.2039 28.2548 17.2039H30.5816C30.7478 17.9454 30.5816 18.4397 29.9168 18.4397H22.1883C22.1052 18.1926 22.1052 17.7806 22.1883 17.3686C24.2659 17.1214 24.5152 16.9567 25.2631 15.2264L30.5816 2.70274C31.4958 0.64292 31.8282 0.230957 33.0747 0.230957H34.1551ZM34.8199 10.942L31.9113 4.02102L29.0858 10.942H34.8199Z" fill="#1D1D1B"/>
<path d="M54.3488 0.560791C54.4319 0.807969 54.4319 1.30232 54.3488 1.6319C52.0219 1.79668 51.6896 2.29104 51.6896 3.44453V16.133C51.6896 17.0394 51.9388 17.2865 53.1023 17.2865H54.5982C54.7643 18.028 54.6813 18.5224 53.9333 18.5224H45.7062C45.6231 18.2752 45.6231 17.8632 45.7062 17.4513C47.8668 17.1217 48.3654 16.8745 48.3654 15.7211V2.95018C48.3654 1.96147 48.1162 1.79668 46.8696 1.79668H45.5399C45.3737 1.13754 45.5399 0.560791 46.7033 0.560791H54.3488Z" fill="#1D1D1B"/>
<path d="M85.4298 0.560791C85.5129 0.890362 85.5129 1.21993 85.4298 1.6319C82.9368 1.79668 82.7705 2.20865 82.8537 3.03257L84.1833 16.133C84.2664 16.9569 84.6819 17.0394 86.7594 17.3689C86.8425 18.1104 86.7594 18.6048 86.0115 18.6048H76.4548C76.3717 18.2752 76.3717 17.9457 76.4548 17.5337L77.9506 17.4512C80.1943 17.2865 80.6099 17.0394 80.4436 15.7211L79.1971 3.93889L72.7152 17.4512C72.2165 18.44 72.0503 18.6048 71.3855 18.6048L63.9063 4.02129L63.0753 16.0506C62.9921 17.1217 62.9921 17.3689 65.8176 17.3689H67.3135C67.4797 18.1104 67.3966 18.6048 66.6486 18.6048H57.7567C57.6736 18.2752 57.6736 17.9457 57.7567 17.5337C60.7484 17.3689 60.9977 16.8745 61.0808 15.7211L62.1611 3.11497C62.2442 2.29104 62.078 1.96147 59.4187 1.87907C59.2525 1.30232 59.4187 0.643183 60.5821 0.643183H66.0669L72.8813 13.4964L79.114 0.643183H85.4298V0.560791Z" fill="#1D1D1B"/>
<path d="M100.304 0.560791C100.387 0.807969 100.387 1.30232 100.304 1.6319C97.4785 1.79668 96.8973 2.04386 96.8973 3.77411V15.6386C96.8973 16.5449 97.3954 16.7922 98.1436 16.7922H99.8888C101.883 16.7922 102.132 16.6274 103.295 14.2379L104.044 12.5901C104.792 12.5901 105.207 12.9197 104.958 13.7436C104.377 15.3091 103.878 16.8745 103.545 18.5224H90.3319C90.2488 18.1929 90.2488 17.8632 90.3319 17.4513C92.9911 17.2865 93.5729 16.9569 93.5729 15.2267V2.95018C93.5729 1.96147 93.2405 1.79668 92.0771 1.79668H90.7474C90.5812 1.13754 90.7474 0.560791 91.9108 0.560791H100.304Z" fill="#1D1D1B"/>
<path d="M122.244 0.56066C122.327 1.79655 122.494 3.03244 122.66 4.18594C122.826 5.00987 122.494 5.50422 121.58 5.42183L121.33 4.18594C120.832 2.53808 120.333 2.12612 118.838 2.12612H114.516V8.96471H117.342C118.173 8.96471 118.339 8.71753 118.422 7.976L118.588 6.57533H118.921C119.419 6.57533 119.752 6.74011 119.668 7.56403C119.585 9.21189 119.585 11.1069 119.668 12.8372C119.419 12.9195 119.004 13.002 118.755 12.8372C118.422 10.7774 118.09 10.5302 117.342 10.5302H114.516V15.2265C114.516 16.2153 114.765 16.6273 116.593 16.6273H118.921C120.915 16.6273 121.164 16.4625 122.327 14.073L123.076 12.4252C123.824 12.4252 124.239 12.7547 123.99 13.5787C123.408 15.1442 122.909 16.7096 122.577 18.3575H107.702C107.619 18.0279 107.619 17.6983 107.702 17.2863C110.527 17.1216 111.109 16.9568 111.109 15.1442V2.78526C111.109 1.79655 110.859 1.63176 109.613 1.63176H108.283C108.2 0.972623 108.283 0.395874 109.447 0.395874H122.244V0.56066Z" fill="#1D1D1B"/>
<path d="M128.892 1.79655H127.563C127.397 1.13741 127.563 0.56066 128.643 0.478267C129.973 0.395874 131.552 0.395874 135.374 0.395874C140.527 0.395874 143.436 2.86766 143.436 6.49293C143.436 8.71754 142.023 10.5302 139.779 11.5189C139.779 11.5189 141.773 13.3315 142.854 14.1555C146.427 16.9568 147.59 17.204 149.918 17.204C150.167 18.1103 149.502 18.8518 146.593 18.8518C144.101 18.8518 142.439 18.2751 140.444 16.6272C139.53 15.8857 138.616 14.8146 137.868 13.5787C137.203 12.3428 137.12 12.2604 135.457 12.2604H133.796V16.2153C133.796 16.9568 134.045 17.2863 135.457 17.2863H136.871C136.954 18.0279 136.871 18.5223 136.123 18.5223H127.646C127.563 18.1927 127.563 17.8631 127.646 17.4511C129.973 17.2863 130.555 17.0392 130.555 15.3913V3.03244C130.389 1.96134 130.057 1.79655 128.892 1.79655ZM135.042 10.7774C137.702 10.7774 139.862 10.3654 139.862 6.74011C139.862 3.11484 137.702 1.96134 134.626 1.96134H133.796V10.7774H135.042Z" fill="#1D1D1B"/>
</g>
<defs>
<clipPath id="clip0_386_158">
<rect width="150" height="19" fill="white"/>
</clipPath>
</defs>
</svg>
