<svg width="150" height="37" viewBox="0 0 150 37" fill="none" xmlns="http://www.w3.org/2000/svg">
<g clip-path="url(#clip0_386_358)">
<path fill-rule="evenodd" clip-rule="evenodd" d="M42.4806 25.3601C42.7445 25.2282 43.0083 25.4921 43.1403 25.7559C43.1403 25.7559 43.536 27.339 44.0637 27.339C44.0637 27.6029 44.0637 27.8667 43.7999 27.9987C42.8764 28.3944 40.8975 28.9221 38.7867 28.9221C32.4542 28.9221 27.9688 24.4367 27.9688 18.3681C27.9688 11.9037 32.7181 7.81396 39.1825 7.81396C40.106 7.81396 41.9529 8.07782 43.1403 8.34167C43.2722 8.47359 43.536 8.73745 43.536 9.0013V13.3549C43.536 13.6187 43.2722 13.8826 43.0083 13.8826H41.821C41.5571 13.8826 41.4252 13.7506 41.2933 13.4868L40.8975 11.7717C40.6337 10.8483 39.8421 10.4525 38.259 10.4525C33.7735 10.4525 32.3223 14.0145 32.3223 17.7084C32.3223 21.9301 34.3012 25.8878 39.3144 25.8878C40.3698 26.0198 41.821 25.7559 42.4806 25.3601ZM52.507 26.2836C54.0901 26.2836 55.1455 25.0963 55.1455 23.909L55.0136 21.5343C55.0136 21.4024 55.0136 21.2704 54.7498 21.2704C51.3197 21.2704 50.1323 22.4578 50.1323 24.1728C50.0004 25.3601 51.0558 26.2836 52.507 26.2836ZM60.9503 26.5475C60.9503 26.2836 60.6864 26.1517 60.4226 26.1517C60.1587 26.2836 59.8949 26.2836 59.631 26.2836C58.9714 26.2836 58.8395 25.8878 58.8395 25.3601V18.3681C58.8395 14.2783 56.3329 12.6952 52.6389 12.6952C50.792 12.6952 48.8131 13.091 47.4938 13.6187C47.23 13.7506 47.098 14.0145 47.23 14.2783L47.6257 16.1253C47.7577 16.5211 48.0215 16.5211 48.2854 16.3892C49.2089 15.8615 50.3962 15.5976 51.5835 15.5976C53.5624 15.5976 55.0136 16.3892 55.0136 18.1042V18.6319C55.0136 18.8958 54.8817 19.1596 54.7498 19.1596C50.1323 19.1596 46.3065 20.6108 46.3065 24.8324C46.3065 27.2071 48.0215 29.0541 50.792 29.0541C53.2986 29.0541 54.4859 27.9987 55.4094 26.9433H55.5413C55.6732 28.1306 56.3329 29.0541 58.0479 29.0541C58.9714 29.0541 60.5545 28.7902 60.8184 28.5264C61.0822 28.3944 61.0822 28.2625 61.0822 27.9987L60.9503 26.5475ZM71.1086 15.7295C69.5255 15.7295 68.3381 16.653 68.3381 18.1042V24.1728C68.3381 25.4921 69.2616 26.2836 70.8447 26.2836C73.7471 26.2836 74.8025 23.3812 74.8025 20.7427C74.6706 18.2361 73.6152 15.7295 71.1086 15.7295ZM70.7128 34.463C70.9767 34.463 71.2405 34.1992 71.2405 33.9353V33.1438C71.2405 32.8799 71.1086 32.6161 70.8447 32.6161L68.9978 32.3522C68.7339 32.2203 68.3381 31.9564 68.3381 31.4287V28.1306C68.4701 28.1306 68.7339 28.1306 68.9978 28.1306C69.3936 28.1306 69.6574 28.2625 70.0532 28.2625C75.8579 28.2625 78.7603 24.7005 78.7603 19.5554C78.7603 15.3338 76.2537 12.4314 72.6917 12.4314C70.317 12.4314 68.9978 13.6187 67.9424 14.806H67.8104L67.5466 13.3549C67.5466 13.091 67.2827 12.6952 66.887 12.8272L62.0057 13.3549C61.7418 13.3549 61.478 13.6187 61.478 13.8826V14.6741C61.478 14.938 61.6099 15.0699 61.8738 15.2018L63.3249 15.4657C63.8527 15.5976 63.9846 16.1253 63.9846 16.3892V31.8245C63.9846 32.4841 63.7207 32.748 63.3249 32.748L62.1376 33.1438C61.8738 33.2757 61.7418 33.4076 61.7418 33.6715V34.463C61.7418 34.7269 62.0057 34.9907 62.2695 34.9907L70.7128 34.463ZM90.5017 25.7559C90.8975 25.7559 91.1614 25.8878 91.1614 26.1517L91.6891 27.7348C91.6891 28.1306 91.6891 28.2625 91.4252 28.3944C90.5017 28.9221 88.7867 29.186 87.5994 29.186C84.5651 29.186 82.4542 27.471 82.4542 24.4367V16.5211C82.4542 16.2572 82.3223 16.1253 82.0585 16.1253H79.9476C79.6838 16.1253 79.6838 15.9934 79.6838 15.7295L79.8157 14.0145C79.8157 14.0145 79.9476 13.7506 80.0796 13.7506H81.7946C82.1904 13.7506 82.1904 13.4868 82.1904 13.2229V11.244C82.1904 10.8483 82.3223 10.5844 82.7181 10.4525L85.6205 9.529C86.0162 9.39708 86.1482 9.66093 86.1482 10.0567V13.2229C86.1482 13.3549 86.2801 13.6187 86.5439 13.6187H90.3698C90.5017 13.6187 90.6337 13.7506 90.6337 13.8826V15.7295C90.6337 15.7295 90.5017 15.9934 90.3698 15.9934H86.5439C86.2801 15.9934 86.0162 16.1253 86.0162 16.3892V23.5132C86.0162 25.2282 86.9397 26.2836 88.6548 26.2836C89.1825 26.1517 89.8421 26.0198 90.5017 25.7559ZM102.111 17.1807C102.111 19.2915 100 19.9512 98.0215 19.9512C97.4938 19.9512 97.098 19.9512 96.8342 19.8192C96.5703 19.8192 96.4384 19.6873 96.4384 19.4235C96.3065 17.4446 97.3619 14.806 99.7366 14.806C101.188 14.806 102.111 15.8615 102.111 17.1807ZM104.75 25.2282C105.014 24.9644 105.277 25.2282 105.409 25.4921L105.541 27.0752C105.673 27.339 105.541 27.6029 105.277 27.7348C104.09 28.5264 102.243 28.9221 100.528 28.9221C95.2511 28.9221 92.4806 25.624 92.4806 20.7427C92.4806 16.1253 96.0426 12.6952 100.396 12.6952C103.299 12.6952 106.201 14.2783 106.201 17.3126C106.201 20.8747 102.507 22.1939 99.3408 22.1939C98.945 22.1939 98.5492 22.1939 98.1535 22.1939C97.7577 22.1939 97.4938 22.1939 97.23 22.1939C96.9661 22.1939 96.8342 22.3258 96.8342 22.5897C97.098 24.9644 99.4727 26.4155 101.452 26.4155C102.903 26.4155 103.958 25.8878 104.75 25.4921C104.75 25.2282 104.75 25.2282 104.75 25.2282ZM116.623 28.6583C116.887 28.6583 117.151 28.3944 117.151 28.1306V27.339C117.151 27.0752 117.019 26.9433 116.755 26.8113L114.908 26.5475C114.644 26.5475 114.248 26.1517 114.248 25.624V18.7638C114.248 17.1807 115.568 16.2572 117.019 16.2572C117.679 16.2572 118.338 16.3892 118.866 16.5211C119.13 16.653 119.525 16.3892 119.525 16.2572L120.185 13.4868C120.317 13.091 120.185 12.8272 119.921 12.8272C119.525 12.5633 118.998 12.5633 118.602 12.5633C116.623 12.5633 115.304 13.8826 114.117 15.4657H113.985L113.721 13.3549C113.721 12.9591 113.457 12.6952 113.193 12.6952L108.312 13.3549C108.048 13.3549 107.784 13.6187 107.784 13.8826V14.6741C107.784 14.938 107.916 15.0699 108.18 15.2018L109.631 15.4657C110.159 15.5976 110.291 16.1253 110.291 16.3892V25.8878C110.291 26.5475 110.027 26.8113 109.631 26.8113L108.312 27.0752C108.048 27.2071 107.916 27.339 107.916 27.6029V28.3944C107.916 28.6583 108.18 28.9221 108.444 28.9221H116.623V28.6583ZM130.475 28.1306C130.475 28.3944 130.211 28.6583 129.948 28.6583H121.768C121.504 28.6583 121.241 28.3944 121.241 28.1306V27.339C121.241 27.0752 121.372 26.9433 121.636 26.8113L122.956 26.5475C123.351 26.5475 123.615 26.1517 123.615 25.624V16.1253C123.615 15.7295 123.483 15.3338 122.956 15.2018L121.504 14.938C121.241 14.806 121.109 14.6741 121.109 14.4103V13.6187C121.109 13.3549 121.372 13.091 121.636 13.091L126.518 12.4314C126.781 12.4314 127.045 12.6952 127.045 13.091L127.309 15.4657H127.441C128.628 13.8826 130.08 12.5633 131.927 12.5633C132.322 12.5633 132.85 12.5633 133.246 12.8272C133.51 12.8272 133.642 13.091 133.51 13.4868L132.85 16.2572C132.85 16.3892 132.454 16.653 132.19 16.5211C131.663 16.3892 131.003 16.2572 130.343 16.2572C128.892 16.2572 127.573 17.1807 127.573 18.7638V25.624C127.573 26.2836 127.969 26.5475 128.233 26.5475L130.08 26.8113C130.343 26.9433 130.475 27.0752 130.475 27.339V28.1306ZM144.064 23.909C144.064 25.0963 143.14 26.2836 141.425 26.2836C140.106 26.2836 138.919 25.3601 138.919 24.0409C138.919 22.3258 140.106 21.1385 143.536 21.1385C143.8 21.1385 143.8 21.2704 143.8 21.4024L144.064 23.909ZM149.341 26.1517C149.605 26.1517 149.868 26.2836 149.868 26.5475L150.132 28.1306C150.132 28.3944 150.132 28.5264 149.868 28.6583C149.473 28.9221 148.022 29.186 147.098 29.186C145.515 29.186 144.723 28.3944 144.591 27.0752H144.46C143.536 27.9987 142.217 29.186 139.842 29.186C137.072 29.186 135.357 27.339 135.357 24.9644C135.357 20.7427 139.182 19.2915 143.8 19.2915C143.932 19.2915 144.064 19.0277 144.064 18.7638V18.1042C144.064 16.2572 142.613 15.5976 140.634 15.5976C139.446 15.5976 138.127 15.9934 137.335 16.3892C137.072 16.5211 136.808 16.5211 136.676 16.1253L136.28 14.2783C136.148 14.0145 136.28 13.7506 136.544 13.6187C137.863 12.9591 139.842 12.6952 141.689 12.6952C145.383 12.6952 147.89 14.2783 147.89 18.3681V25.3601C147.89 26.0198 148.153 26.2836 148.813 26.2836C148.813 26.2836 149.077 26.2836 149.341 26.1517Z" fill="black"/>
<path fill-rule="evenodd" clip-rule="evenodd" d="M6.0686 17.4447H0.791557C0.659631 17.4447 0.527704 17.3127 0.659631 17.3127C0.527704 17.3127 0.527704 17.1808 0.527704 17.0489L0.659631 16.3892C0.791557 16.1254 0.791557 15.9935 0.791557 15.9935C0.791557 15.8615 0.923483 15.7296 0.923483 15.5977C0.923483 15.3338 1.05541 15.07 1.18734 14.8061C3.29815 7.02249 10.1583 0.953888 10.8179 0.294257C11.2137 0.162331 11.3456 0.162331 11.6095 0.294257C18.8654 6.75864 21.6359 13.223 21.8997 16.785V17.1808C21.8997 17.3127 21.7678 17.5766 21.504 17.5766H16.095C15.9631 17.5766 15.6992 17.5766 15.6992 17.3127C15.1715 15.07 13.1926 13.6188 11.0818 13.6188C8.83905 13.6188 6.99208 15.2019 6.46438 17.3127C6.33245 17.3127 6.33245 17.4447 6.0686 17.4447ZM15.8311 19.5555H21.2401C21.2401 19.5555 21.504 19.5555 21.2401 19.6874C21.372 19.6874 21.372 19.8193 21.372 19.9513L21.2401 20.6109C21.1082 20.7428 21.1082 20.8747 21.1082 20.8747C21.1082 21.0067 20.9763 21.1386 20.9763 21.2705C20.9763 21.5344 20.8443 21.7982 20.7124 22.0621C18.4697 29.8457 11.6095 36.0462 10.9499 36.7059C10.686 36.8378 10.5541 36.8378 10.2902 36.7059C3.16623 30.2415 0.263852 23.7771 0 20.2151V19.8193C0 19.6874 0.131926 19.4235 0.395778 19.4235H5.80475C5.93668 19.4235 6.20053 19.4235 6.20053 19.6874C6.72823 21.9301 8.70712 23.3813 10.8179 23.3813C13.0607 23.3813 14.9077 21.7982 15.4354 19.6874C15.4354 19.6874 15.5673 19.5555 15.8311 19.5555Z" fill="black"/>
</g>
<defs>
<clipPath id="clip0_386_358">
<rect width="150" height="37" fill="white"/>
</clipPath>
</defs>
</svg>
