<svg width="36" height="36" viewBox="0 0 36 36" fill="none" xmlns="http://www.w3.org/2000/svg">
<path d="M18.2302 0.257324C19.3938 0.257324 20.6867 0.257324 21.8504 0.643039L18.2302 7.71447C12.7999 7.32875 8.01604 11.7002 7.62816 17.3573C7.36958 23.0145 11.5069 27.9002 17.0665 28.1573H18.2302C20.6867 28.1573 23.014 27.2573 24.8241 25.7145L28.7029 32.5288C25.7292 34.7145 22.109 36.0002 18.1009 36.0002C8.53321 36.2573 0.387757 28.9288 -0.0001223 18.9002C-0.258708 9.00018 6.9817 0.643039 16.6787 0.257324H18.2302Z" fill="#1D1D1B"/>
<path d="M22.1092 15.5571L17.584 23.2714H26.3759L30.5133 30.7286L35.0385 23.2714L30.5133 15.5571H22.1092Z" fill="#1D1D1B"/>
<path d="M23.2725 12.7287C23.2725 11.443 23.531 10.2858 24.1775 9.25725C24.824 8.35725 25.9876 7.32868 26.8927 6.8144L27.5391 6.42868C28.7028 5.78583 29.0906 5.52868 29.0906 4.88583C29.0906 4.24297 28.1856 3.60011 27.5391 3.60011C26.3755 3.60011 25.3411 4.24297 24.824 5.52868L23.2725 4.1144C23.531 3.47154 24.1775 2.82868 24.824 2.18583C25.729 1.54297 26.6341 1.54297 27.5391 1.54297C28.4442 1.54297 29.7371 1.92868 30.2543 2.44297C30.7714 3.08583 31.4179 3.98583 31.4179 4.88583C31.4179 6.42868 30.5129 7.7144 28.7028 8.35725L27.7977 9.00011C26.8927 9.64297 26.2462 9.90011 25.9876 10.9287H31.4179V13.1144C31.4179 12.9858 23.2725 12.7287 23.2725 12.7287Z" fill="#1D1D1B"/>
</svg>
