<svg width="112" height="25" viewBox="0 0 112 25" fill="none" xmlns="http://www.w3.org/2000/svg">
<g clip-path="url(#clip0_386_137)">
<path d="M0 12.313V24.6161H2.44H4.88V19.6162V14.5866L6.75 14.6457L8.62 14.7047L11.49 19.6457L14.34 24.5866L17.15 24.6161C18.67 24.6161 19.93 24.5768 19.93 24.5177C19.93 24.4587 18.63 22.1752 17.06 19.4488C15.47 16.7224 14.15 14.4488 14.11 14.3799C14.07 14.3012 14.55 14.0059 15.2 13.6811C16.69 12.9528 18.19 11.5847 18.83 10.3445C19.72 8.58269 19.77 5.48229 18.91 3.83859C18.02 2.13584 15.94 0.698826 13.65 0.216541C13 0.0787468 10.13 -0.00982857 6.29 -0.00982857H0V12.313ZM12.95 4.61616C14.07 5.11812 14.64 6.0138 14.64 7.31301C14.64 8.5138 14.13 9.43898 13.18 9.9508C12.61 10.2461 11.9 10.3248 8.71 10.374L4.89 10.4528V7.32285V4.19292H8.5C11.61 4.21261 12.22 4.27167 12.95 4.61616Z" fill="black"/>
<path d="M77.6504 12.5197V24.626H79.9904H82.3304V12.5197V0.413372H79.9904H77.6504V12.5197Z" fill="black"/>
<path d="M103.5 11.7517C103.56 21.0824 103.56 21.1217 104.03 22.0568C104.56 23.1198 105.82 24.3205 106.84 24.7339C107.28 24.9111 108.3 25.0095 109.76 25.0095H112V23.0115V21.0135H110.7C109.71 21.0135 109.3 20.915 108.87 20.5902L108.34 20.1867V15.482V10.8068H110.17H112V8.90716V7.00755H110.17H108.34V4.70441V2.40126H105.88H103.44L103.5 11.7517Z" fill="black"/>
<path d="M26.1798 6.98819C24.5298 7.52953 23.4098 8.21851 22.2198 9.44882C20.9998 10.748 20.4298 11.752 20.0198 13.4547C18.9298 18.0217 20.9298 22.3917 24.9998 24.2913C26.2598 24.8917 26.4198 24.9213 28.9598 24.9213C31.2298 24.9213 31.7698 24.8622 32.7798 24.4488C34.1998 23.8878 36.0998 22.2441 36.8498 20.8858L37.3798 19.9114L35.7498 18.9764C34.8598 18.4547 34.0498 18.0413 33.9598 18.0413C33.8798 18.0413 33.5298 18.4449 33.1698 18.9173C32.3598 20.0787 31.2598 20.7776 29.9198 21.0433C28.7298 21.2697 27.8598 21.1417 26.8298 20.6201C25.6098 20.0197 24.3898 18.4449 24.3898 17.4409C24.3898 17.0374 24.4698 17.0374 31.0998 17.0374H37.8098V15.3642C37.8098 11.5256 36.0098 8.69095 32.6298 7.22442C31.1798 6.55512 27.8198 6.4567 26.1798 6.98819ZM31.6698 10.8957C32.1998 11.2598 32.7098 11.8307 33.0298 12.5L33.5598 13.5236L29.0498 13.5827C26.5698 13.6122 24.4998 13.5827 24.4398 13.5236C24.1598 13.248 25.6198 11.4567 26.6398 10.8563C27.6798 10.2264 27.8598 10.1968 29.3098 10.2559C30.5898 10.315 30.9598 10.3937 31.6698 10.8957Z" fill="black"/>
<path d="M63.0396 6.91931C60.4196 7.64766 57.9996 9.54725 57.0096 11.6831C56.2996 13.248 55.9896 15.6496 56.2996 17.4606C57.0896 22.1949 60.6396 25.0295 65.8496 25.0295C68.8996 25.0295 70.9296 24.3012 72.8996 22.5689C74.0396 21.5453 74.8096 20.2658 75.3096 18.5433C75.7396 17.0768 75.6396 13.8091 75.1296 12.4114C74.2896 10.1477 72.0796 8.0512 69.5796 7.17521C68.0296 6.61419 64.6096 6.48624 63.0396 6.91931ZM67.9896 11.3878C70.8396 12.628 71.7796 16.3681 69.8596 18.8484C68.4996 20.6103 65.6296 21.2697 63.6996 20.2756C62.6496 19.7146 61.4996 18.4744 61.1796 17.5099C60.7696 16.3091 61.0096 14.1732 61.6496 13.2382C63.0896 11.0925 65.5896 10.374 67.9896 11.3878Z" fill="black"/>
<path d="M37.6697 7.29334C37.7297 7.43114 39.3597 11.3977 41.2897 16.0926L44.8097 24.6359L47.0197 24.5768L49.2297 24.5178L52.6597 16.2107C54.5497 11.6437 56.1497 7.70673 56.2197 7.44098L56.3497 6.97839L53.8697 7.03744L51.3697 7.09649L49.2097 12.7363C48.0297 15.8367 46.9997 18.317 46.9397 18.2382C46.8597 18.1595 45.8597 15.6004 44.6997 12.5394L42.5897 6.99807H40.0697C38.0397 7.01775 37.5797 7.07681 37.6697 7.29334Z" fill="black"/>
<path d="M84.7598 12.4803C84.7598 15.561 84.8598 18.4547 84.9898 19.124C85.4298 21.565 86.7598 23.248 89.0198 24.3012C90.3198 24.9016 90.4698 24.9311 93.1098 24.9311C95.6898 24.9311 95.9298 24.8917 97.0698 24.3701C99.3298 23.3366 100.77 21.5059 101.21 19.1339C101.34 18.4744 101.44 15.5709 101.44 12.4902V7.02755H99.1298H96.7898L96.7298 12.4705C96.6698 17.6968 96.6498 17.9724 96.1998 18.7697C95.5498 19.9705 94.4498 20.4921 92.8098 20.3937C91.3498 20.3149 90.5098 19.8228 89.9398 18.6909C89.5998 18.0118 89.5598 17.3327 89.4998 12.4606L89.4398 7.01771H87.0998H84.7898V12.4803H84.7598Z" fill="black"/>
</g>
<defs>
<clipPath id="clip0_386_137">
<rect width="112" height="25" fill="white"/>
</clipPath>
</defs>
</svg>
