<svg width="138" height="53" viewBox="0 0 138 53" fill="none" xmlns="http://www.w3.org/2000/svg">
<g clip-path="url(#clip0_386_99)">
<path d="M22.174 9.86393C21.7076 9.47253 21.2413 9.47252 20.6972 9.94219C18.1325 10.8816 13.3137 14.1697 12.1479 13.9349C14.0909 11.2731 16.1894 8.68964 18.5988 6.34104C19.6091 4.93187 18.2878 4.61873 18.1325 3.83587C17.8215 2.81814 17.977 1.72213 18.2878 0.782691C18.7542 -0.00017523 17.8215 -0.156748 17.2775 0.156398C10.982 6.73247 5.61928 13.3086 0.645113 19.9629C-0.132101 20.9806 0.0233421 21.7635 0.567391 22.3898L3.20992 25.7561C3.75397 26.6956 4.6089 26.8521 5.697 26.1476L14.0132 20.5109C10.6712 25.9909 7.4846 32.1756 5.07523 39.6911C3.98713 42.9009 7.01827 47.7546 11.1375 52.8432C11.6038 53.3912 12.5365 52.8432 11.9147 51.7473C7.95093 44.31 11.2152 32.8019 23.9615 15.8137C24.5833 15.1092 24.8165 14.4045 24.3501 13.7L22.174 9.86393Z" fill="#1D1D1B"/>
<path d="M54.9719 19.6492L56.06 15.4218C56.2932 14.7955 56.7595 14.4824 57.3813 14.4041H61.1119H62.2L62.8217 12.4469H61.1896L56.06 12.5252C54.9719 12.4469 54.117 12.8384 53.573 14.091L50.7749 25.0511L49.6868 29.3568C49.376 30.2962 49.6091 31.0791 50.7749 31.3923C50.8527 31.3923 51.0081 31.4705 51.0859 31.4705H57.6144L58.1584 29.5134H53.1843C52.7957 29.2002 52.4848 29.2002 52.6403 28.2608L53.8061 23.6419C53.9616 23.0939 54.2724 22.7025 54.8164 22.7025H58.6248L59.1689 21.0584H55.2828C54.8164 20.7453 54.7387 20.2755 54.9719 19.6492Z" fill="#1D1D1B"/>
<path d="M62.6656 28.2615C65.2304 18.1626 63.676 24.1906 66.0076 15.4225C66.2408 14.7962 66.7071 14.483 67.3289 14.4048H70.8264H72.0699L72.5362 12.8391L72.6917 12.3693H72.5362H70.8264H65.93C64.8418 12.291 63.9092 12.6824 63.4428 13.935L61.1112 23.0946L59.5568 29.1227C59.2459 30.2186 59.4791 31.0015 60.9557 31.2364H61.0335H67.4844L68.0284 29.2792H63.0543C62.8211 29.2792 62.5101 29.201 62.6656 28.2615Z" fill="#1D1D1B"/>
<path d="M37.6409 22.3114L33.9103 19.0234C33.1331 18.084 33.9103 14.5611 35.5425 14.4828H39.6617H41.0607L41.527 12.6039H39.6617H34.5321C32.3559 12.9953 30.5683 17.5359 31.4232 19.7279L35.2316 23.1726C35.7756 23.7989 35.8533 24.3469 35.8533 24.9732L34.7653 28.731C34.5321 29.6704 33.9103 29.6704 33.1331 29.6704H28.0035L27.5371 31.471H35.0761C36.2419 31.3927 36.9414 30.6881 37.0969 29.5138L38.3405 24.7383C38.6513 23.6423 38.2627 22.8594 37.6409 22.3114Z" fill="#1D1D1B"/>
<path d="M50.2308 21.7632L50.7748 19.4929L51.9407 14.7174C52.096 13.4648 51.7075 12.7603 50.7748 12.6037C50.6194 12.5254 50.4639 12.5254 50.3085 12.5254H42.9249L39.7384 24.5032L37.873 31.4708H39.7384H40.4379L45.0235 14.4825H48.0545C48.6763 14.6391 49.065 14.9523 49.065 15.5785L47.8214 20.7454C47.6659 21.6066 47.1219 22.1546 46.1893 22.4677L43.8576 22.9375L43.469 24.7381L48.5209 23.7987C49.3758 23.5638 50.0753 22.9375 50.2308 21.7632Z" fill="#1D1D1B"/>
<path d="M77.1227 12.5254H74.0915L72.5371 18.2403L70.8273 24.5815L68.9619 31.4708H70.8273H71.9931L72.5371 29.357L77.1227 12.5254Z" fill="#1D1D1B"/>
<path d="M104.015 12.5254H102.149H101.061L95.8535 31.4708H98.8851L102.149 19.5712L104.015 12.5254Z" fill="#1D1D1B"/>
<path d="M117.304 23.6426C117.46 23.0946 117.771 22.7032 118.315 22.7032H122.123L122.667 21.0591H118.704C118.237 20.746 118.159 20.2763 118.393 19.65L119.559 15.4225C119.792 14.7962 120.257 14.483 120.879 14.4048H124.299H125.699L126.086 13.1522L126.32 12.3693H126.086H124.377H119.636C118.548 12.291 117.615 12.6824 117.149 13.935L114.35 24.8952L113.263 29.201C112.952 30.1404 113.185 30.9233 114.35 31.2364C114.428 31.2364 114.584 31.3147 114.661 31.3147H121.19L121.734 29.3575H116.682C116.294 29.0443 115.983 29.0443 116.138 28.1049L117.304 23.6426Z" fill="#1D1D1B"/>
<path d="M136.424 12.5254H127.486L126.01 17.8489L124.3 24.1901L122.356 31.3924H124.3H126.01H131.45C132.771 31.3142 133.548 30.6096 133.859 29.2787L137.901 14.1694C138.057 13.2299 137.513 12.6037 136.424 12.5254ZM134.637 15.9699L131.295 27.713C131.217 28.6524 130.595 29.2787 129.352 29.357H126.165C126.088 29.357 126.01 29.357 125.932 29.2787C125.621 29.1222 125.621 28.7307 125.777 28.3393L125.932 27.7912L129.896 14.2477H133.781C134.792 14.326 134.947 14.9523 134.637 15.9699Z" fill="#1D1D1B"/>
<path d="M104.635 28.0263L114.195 15.7354L114.894 14.7959C115.749 13.5434 115.439 12.6039 114.195 12.6039C114.195 12.6039 114.195 12.6039 114.117 12.6039H105.413L105.335 14.3262H110.698C111.397 14.3262 111.786 14.6393 111.32 15.2656L102.148 27.4L100.594 29.4355C99.9722 30.3749 100.205 31.0796 101.294 31.5492H102.148H110.775L111.32 29.4355H104.791C104.169 29.279 104.091 28.4961 104.635 28.0263Z" fill="#1D1D1B"/>
<path d="M82.4079 12.6037L72.5373 31.2359L72.3818 31.549H72.5373H74.7135L82.4857 16.6746L83.1851 16.7528L83.5738 20.902C83.8846 21.9197 83.1851 21.8415 82.952 21.8415H80.7758L80.3871 23.4072L82.952 23.4855C83.4183 23.5638 83.6515 23.7987 83.5738 24.2683L84.0401 31.3142H86.6826L85.5945 12.5254L82.4079 12.6037Z" fill="#1D1D1B"/>
<path d="M90.7236 28.0261L94.9203 12.5254H91.8896L87.3816 29.2004C87.3038 30.1399 87.6924 31.1575 88.9357 31.4708H94.9203L95.5422 29.4353L91.2677 29.357C90.7236 29.2787 90.4904 28.809 90.7236 28.0261Z" fill="#1D1D1B"/>
</g>
<defs>
<clipPath id="clip0_386_99">
<rect width="138" height="53" fill="white"/>
</clipPath>
</defs>
</svg>
