<svg width="150" height="21" viewBox="0 0 150 21" fill="none" xmlns="http://www.w3.org/2000/svg">
<path d="M55.1055 19.9425H51.3706V6.72308H46.4922V3.55042H59.9839V6.72308H55.1055V19.9425Z" fill="#282828"/>
<path d="M74.9997 3.55042H71.1885V19.9425H74.9997V3.55042Z" fill="#282828"/>
<path d="M141.773 16.6943H148.328V19.9425H137.962V3.55042H141.773V16.6943Z" fill="#282828"/>
<path d="M91.2365 16.7698H93.5999C96.7254 16.7698 98.8595 14.8058 98.8595 11.7087C98.8595 8.76269 96.7254 6.79862 93.676 6.79862H91.2365V16.7698ZM87.5781 3.55042H93.676C98.1735 3.55042 102.67 5.89214 102.67 11.7087C102.67 17.1475 98.2496 19.9425 93.9044 19.9425H87.5781V3.55042Z" fill="#282828"/>
<path d="M116.543 13.8238L119.059 7.40293L121.497 13.8238H116.543ZM123.785 19.9425H127.977L121.117 3.55042H117.229L110.369 19.9425H114.409L115.629 16.6943H122.641L123.785 19.9425Z" fill="#282828"/>
<path d="M16.3345 1.16327L11.4844 5.97121L16.3359 10.7778L21.186 5.96985L16.3345 1.16327Z" fill="#282828"/>
<path d="M16.3225 10.7624L11.4717 15.5696L16.3225 20.377L21.1733 15.5696L16.3225 10.7624Z" fill="#282828"/>
<path d="M6.64966 1.15112L1.79883 5.95838L6.64966 10.7657L11.5005 5.95838L6.64966 1.15112Z" fill="#282828"/>
<path d="M26.021 1.17523L21.1709 5.98317L26.0224 10.7897L30.8725 5.98182L26.021 1.17523Z" fill="#282828"/>
</svg>
